<svg width="121" height="132" viewBox="0 0 121 132" fill="none" xmlns="http://www.w3.org/2000/svg">
<g clip-path="url(#clip0_3474_7)" filter="url(#filter0_d_3474_7)">
<path fill-rule="evenodd" clip-rule="evenodd" d="M18.4502 96.85C18.9299 96.8539 19.3977 96.9998 19.7947 97.2692C20.1917 97.5386 20.5 97.9195 20.6809 98.3638C20.8617 98.8082 20.907 99.2961 20.811 99.7662C20.715 100.236 20.482 100.667 20.1414 101.005C19.8008 101.343 19.3677 101.572 18.8969 101.665C18.4261 101.757 17.9385 101.708 17.4957 101.523C17.0528 101.339 16.6745 101.027 16.4083 100.628C16.1422 100.229 16.0002 99.7597 16.0002 99.28C16.0002 98.6355 16.2562 98.0174 16.7119 97.5617C17.1676 97.106 17.7857 96.85 18.4302 96.85H18.4502ZM30.2802 18.5C32.7218 18.4901 35.1113 19.2053 37.146 20.555C39.1807 21.9047 40.7688 23.8281 41.7091 26.0814C42.6494 28.3347 42.8996 30.8164 42.4278 33.212C41.9561 35.6076 40.7838 37.8093 39.0594 39.5379C37.335 41.2664 35.1363 42.4442 32.7418 42.9217C30.3473 43.3993 27.865 43.1552 25.6094 42.2204C23.3538 41.2856 21.4266 39.7021 20.0719 37.6708C18.7173 35.6394 17.9962 33.2516 18.0002 30.81C18.0054 27.552 19.2999 24.4285 21.6009 22.1219C23.9018 19.8153 27.0222 18.5132 30.2802 18.5ZM62.2802 52.38H63.2802C63.5045 52.3867 63.7279 52.3481 63.937 52.2666C64.146 52.1851 64.3365 52.0622 64.4971 51.9054C64.6576 51.7486 64.7849 51.561 64.8714 51.3539C64.9578 51.1468 65.0016 50.9244 65.0002 50.7V47.99C65.0002 47.5471 64.8242 47.1223 64.511 46.8091C64.1978 46.4959 63.7731 46.32 63.3302 46.32H57.3302C56.8873 46.32 56.4625 46.4959 56.1493 46.8091C55.8361 47.1223 55.6602 47.5471 55.6602 47.99V50.7C55.6602 50.9193 55.7034 51.1364 55.7873 51.3391C55.8712 51.5417 55.9942 51.7258 56.1493 51.8808C56.3044 52.0359 56.4885 52.1589 56.6911 52.2428C56.8937 52.3268 57.1109 52.37 57.3302 52.37H58.3302L57.8402 56.73L58.6302 56.4C59.3502 56.13 60.1702 55.88 61.0802 55.64C61.6102 55.51 62.1302 55.39 62.6502 55.29L62.3302 52.37L62.2802 52.38ZM26.1102 62.38C26.2902 56.26 26.9102 51.91 33.1102 49.58C37.3502 47.99 42.7702 45.97 46.6702 43.58L51.5202 61.12L51.4202 61.23L50.5302 62.29C49.9802 62.29 49.4402 62.29 48.9102 62.37C47.235 62.5203 45.5815 62.8557 43.9802 63.37C42.4585 63.8467 40.9853 64.4661 39.5802 65.22C38.8602 65.6 38.1602 66 37.4802 66.42H34.2802C33.724 65.8242 33.1074 65.288 32.4402 64.82C32.2902 64.7 32.1302 64.59 31.9702 64.48C30.6091 63.6204 29.1055 63.0109 27.5302 62.68C27.0768 62.58 26.6068 62.5 26.1202 62.44L26.1102 62.38ZM51.7302 37.68C51.9202 36.12 47.3002 30.17 46.4602 27.32C44.6502 24.44 44.0002 19.88 46.0002 16.83C46.7902 15.63 46.4502 14.57 46.4502 12.91C46.4502 -3.63003 75.4502 -3.64003 75.4502 12.91C75.4502 15 74.9702 15.5 76.1102 17.14C78.0102 19.89 77.0202 24.77 75.4302 27.32C74.4302 30.32 69.5502 35.98 69.8902 37.68C70.1802 46.17 51.7202 45.89 51.7702 37.68H51.7302ZM74.2202 42.68C77.7802 44.96 82.8302 46.82 86.8702 48.18C92.9802 50.18 94.3702 55.31 94.6602 62.71C93.5544 62.799 92.4614 63.0069 91.4002 63.33C91.0302 63.45 90.6802 63.57 90.3302 63.71L89.7702 63.34C88.6202 62.57 88.2102 62.28 87.7702 61.98C86.1402 60.84 84.4802 59.67 82.7702 58.7C80.8512 57.5668 78.7988 56.6766 76.6602 56.05C76.6602 56.05 76.4202 55.96 76.4102 55.98L76.1902 55.92C74.9428 55.5952 73.6772 55.3448 72.4002 55.17C71.8935 55.1033 71.3635 55.0433 70.8102 54.99L74.2102 42.7L74.2202 42.68ZM90.2902 18.5C92.7314 18.4921 95.1199 19.209 97.1533 20.5599C99.1866 21.9108 100.773 23.8349 101.712 26.0883C102.651 28.3418 102.899 30.8232 102.427 33.2182C101.954 35.6132 100.781 37.8139 99.0559 39.5414C97.3311 41.269 95.1323 42.4457 92.7381 42.9225C90.3439 43.3992 87.8621 43.1546 85.6071 42.2194C83.3521 41.2843 81.4254 39.7009 80.0712 37.6697C78.717 35.6386 77.9962 33.2512 78.0002 30.81C78.0054 27.5502 79.3013 24.4252 81.6044 22.1184C83.9075 19.8115 87.0304 18.5105 90.2902 18.5ZM89.0002 36.02C88.8792 36.011 88.759 35.9943 88.6402 35.97L88.0002 35.88L87.6102 35.82L87.2302 35.74L86.8702 35.65H86.7202V33.16L87.4102 33.22H87.9202H88.4502H88.9902H89.9902H90.3802H90.6902C90.763 33.2013 90.8334 33.1744 90.9002 33.14C90.9521 33.1248 90.9977 33.0932 91.0302 33.05C91.0644 33.0258 91.0892 32.9904 91.1002 32.95C91.1112 32.8972 91.1112 32.8427 91.1002 32.79V32.63C91.105 32.577 91.0966 32.5237 91.0756 32.4748C91.0547 32.4259 91.0219 32.383 90.9802 32.35C90.9311 32.3095 90.8726 32.282 90.8102 32.27C90.7406 32.2588 90.6697 32.2588 90.6002 32.27H89.8902C89.4041 32.2769 88.9195 32.2163 88.4502 32.09C88.071 31.9639 87.7208 31.7633 87.4202 31.5C87.1111 31.2348 86.8825 30.8884 86.7602 30.5C86.6026 30.0332 86.5281 29.5425 86.5402 29.05V28.6C86.5314 28.1321 86.6129 27.667 86.7802 27.23C86.933 26.8418 87.1805 26.498 87.5002 26.23C87.7203 26.0448 87.9621 25.887 88.2202 25.76C88.4651 25.6333 88.7282 25.5455 89.0002 25.5V24.44H91.2602V25.44C91.596 25.4715 91.9299 25.5215 92.2602 25.59H92.4502L92.9202 25.68L93.3502 25.77H93.5002V28.23H93.2802H92.6302H91.8902H91.1602H90.1602H89.8602C89.7873 28.238 89.7163 28.2583 89.6502 28.29C89.5981 28.315 89.5507 28.3488 89.5102 28.39C89.4755 28.4222 89.4512 28.4639 89.4402 28.51C89.429 28.5795 89.429 28.6504 89.4402 28.72V28.85C89.4284 28.9228 89.4284 28.9971 89.4402 29.07C89.4652 29.1247 89.5029 29.1727 89.5502 29.21C89.6086 29.2557 89.6772 29.2865 89.7502 29.3C89.8595 29.3172 89.9708 29.3172 90.0802 29.3H91.0002C91.3065 29.2958 91.6121 29.3294 91.9102 29.4C92.1805 29.4555 92.4404 29.5534 92.6802 29.69C93.1021 29.921 93.4491 30.268 93.6802 30.69C93.7945 30.9111 93.8785 31.1465 93.9302 31.39C93.9908 31.6489 94.021 31.914 94.0202 32.18V32.62C94.025 33.0166 93.9848 33.4125 93.9002 33.8C93.8347 34.1159 93.7128 34.4174 93.5402 34.69C93.3835 34.9313 93.1834 35.1415 92.9502 35.31C92.7099 35.4799 92.4429 35.6084 92.1602 35.69H92.0802C91.8096 35.7752 91.5318 35.8355 91.2502 35.87V37.04H89.0002V36.02ZM90.2902 20.65C92.2996 20.65 94.264 21.2458 95.9348 22.3622C97.6056 23.4786 98.9078 25.0654 99.6768 26.9219C100.446 28.7784 100.647 30.8212 100.255 32.7921C99.8629 34.7629 98.8953 36.5733 97.4744 37.9942C96.0535 39.4151 94.2431 40.3827 92.2723 40.7747C90.3014 41.1668 88.2586 40.9656 86.4021 40.1966C84.5456 39.4276 82.9588 38.1254 81.8424 36.4546C80.726 34.7838 80.1302 32.8194 80.1302 30.81C80.1288 29.4754 80.3907 28.1536 80.9009 26.9204C81.411 25.6871 82.1593 24.5665 83.103 23.6228C84.0467 22.6791 85.1673 21.9308 86.4006 21.4207C87.6338 20.9106 88.9556 20.6487 90.2902 20.65ZM29.0002 36.02C28.8792 36.011 28.759 35.9943 28.6402 35.97L28.0002 35.88L27.6002 35.82L27.2202 35.74L26.8602 35.65H26.7102V33.16L27.4002 33.22H27.9102H28.4502H28.9902H29.9902H30.3802H30.6902L30.9102 33.14C30.9593 33.1194 31.0036 33.0888 31.0402 33.05C31.0713 33.0248 31.0926 32.9893 31.1002 32.95C31.1115 32.8972 31.1115 32.8427 31.1002 32.79V32.63C31.1048 32.576 31.0953 32.5218 31.0725 32.4726C31.0497 32.4235 31.0144 32.3812 30.9702 32.35C30.9211 32.3095 30.8626 32.282 30.8002 32.27C30.7339 32.2595 30.6664 32.2595 30.6002 32.27H29.8802C29.3974 32.2776 28.916 32.217 28.4502 32.09C28.0695 31.9672 27.7186 31.7663 27.4202 31.5C27.1109 31.233 26.8794 30.8875 26.7502 30.5C26.5975 30.032 26.5232 29.5421 26.5302 29.05V28.6C26.5214 28.1321 26.6029 27.667 26.7702 27.23C26.9266 26.8411 27.1775 26.4974 27.5002 26.23C27.717 26.0404 27.9594 25.8822 28.2202 25.76C28.4652 25.6337 28.7283 25.546 29.0002 25.5V24.44H31.2602V25.44C31.5962 25.4701 31.9301 25.5202 32.2602 25.59H32.4502L32.9302 25.68L33.3502 25.77H33.5002V28.23H33.2802H32.6302H31.9002H31.1602H30.1602H29.8602C29.7873 28.238 29.7163 28.2583 29.6502 28.29C29.5996 28.3175 29.5526 28.3511 29.5102 28.39C29.479 28.4249 29.4552 28.4657 29.4402 28.51C29.429 28.5795 29.429 28.6504 29.4402 28.72V28.85C29.4231 28.9223 29.4231 28.9976 29.4402 29.07C29.458 29.126 29.493 29.175 29.5402 29.21C29.5998 29.2536 29.668 29.2842 29.7402 29.3C29.8528 29.3178 29.9675 29.3178 30.0802 29.3H31.0002C31.3064 29.2964 31.612 29.33 31.9102 29.4C32.1769 29.4571 32.4332 29.5549 32.6702 29.69C33.0921 29.921 33.4391 30.268 33.6702 30.69C33.7877 30.9107 33.8751 31.1461 33.9302 31.39C33.9825 31.6501 34.0093 31.9147 34.0102 32.18V32.62C34.0131 33.016 33.9762 33.4113 33.9002 33.8C33.836 34.1179 33.7103 34.4202 33.5302 34.69C33.3735 34.9313 33.1734 35.1415 32.9402 35.31C32.7011 35.4818 32.4337 35.6104 32.1502 35.69H32.0802C31.8058 35.774 31.5248 35.8342 31.2402 35.87V37.04H29.0002V36.02ZM30.2902 20.65C32.2992 20.6519 34.2625 21.2495 35.932 22.3671C37.6015 23.4847 38.9022 25.0722 39.6696 26.9288C40.4371 28.7855 40.6369 30.828 40.2437 32.7982C39.8506 34.7684 38.8821 36.5778 37.4608 37.9977C36.0395 39.4176 34.2292 40.3843 32.2586 40.7755C30.288 41.1667 28.2457 40.9649 26.3898 40.1956C24.5339 39.4263 22.9477 38.1241 21.8317 36.4535C20.7158 34.7829 20.1202 32.819 20.1202 30.81C20.1202 28.1154 21.1906 25.5311 23.096 23.6258C25.0013 21.7204 27.5856 20.65 30.2802 20.65H30.2902ZM89.2902 75.65C89.2804 75.2118 89.3071 74.7736 89.3702 74.34L84.5802 71.14C83.9002 70.68 83.1402 70.14 82.3902 69.62C79.6602 67.72 76.8602 65.75 73.8402 64.96C72.0633 64.4936 70.2369 64.2418 68.4002 64.21C66.7168 64.1639 65.0349 64.3455 63.4002 64.75C62.4467 64.9947 61.5241 65.347 60.6502 65.8C59.8801 66.2038 59.1672 66.7082 58.5302 67.3L55.3202 71.12C55.2201 71.308 55.0802 71.4718 54.9102 71.6L46.0002 82.1C46.1106 82.7173 46.3716 83.2978 46.7602 83.79C47.1898 84.3201 47.7572 84.7215 48.4002 84.95C49.14 85.2131 49.9282 85.3121 50.7102 85.24C52.1772 85.076 53.566 84.4928 54.7102 83.56L57.1702 81.56C57.7902 81.05 58.3102 80.56 58.8302 80.11C59.8882 79.0676 61.0472 78.133 62.2902 77.32C65.0502 75.67 67.8002 75.62 70.5202 80.18L84.4502 105.31H89.1902V75.61L89.2902 75.65ZM90.4102 71.65C90.6241 71.3458 90.8724 71.0673 91.1502 70.82C92.6166 69.6489 94.4675 69.0676 96.3402 69.19H108.45C110.566 69.0389 112.673 69.5832 114.45 70.74C116.03 71.97 116.78 73.83 116.45 76.5L113.77 104.18C113.739 106.259 113.037 108.272 111.77 109.92C111.119 110.641 110.307 111.198 109.4 111.545C108.493 111.893 107.516 112.021 106.55 111.92H95.6902C94.2847 112.032 92.8897 111.602 91.7902 110.72C90.9375 110.026 90.2536 109.147 89.7902 108.15H86.0502C86.5264 109.485 86.551 110.94 86.1202 112.29C85.7014 113.557 84.9146 114.671 83.8602 115.49C82.831 116.309 81.6085 116.85 80.3102 117.06C79.0258 117.277 77.7064 117.132 76.5002 116.64C75.2913 117.988 73.7344 118.978 72.0002 119.5C70.4195 119.927 68.7451 119.85 67.2102 119.28C65.891 120.853 64.1043 121.963 62.1102 122.45C60.0487 122.845 57.9141 122.535 56.0502 121.57C55.4091 122.073 54.7026 122.487 53.9502 122.8C52.9219 123.229 51.8138 123.433 50.7002 123.4C48.497 123.444 46.3568 122.663 44.7002 121.21C43.3264 119.833 42.1849 118.242 41.3202 116.5L35.3202 106.03H30.6602C30.4557 107.226 29.984 108.361 29.2802 109.35L29.2202 109.44C28.5872 110.232 27.7686 110.855 26.8371 111.254C25.9056 111.654 24.89 111.817 23.8802 111.73H13.7202C12.7947 111.937 11.83 111.885 10.9321 111.58C10.0341 111.275 9.23767 110.728 8.63017 110C7.43017 108.62 6.63017 106.37 6.27017 103.07V102.95L4.17017 76.95C3.75017 74.15 4.17017 72.16 5.34017 70.8C5.9779 70.1179 6.75372 69.5795 7.61589 69.2208C8.47807 68.8622 9.4068 68.6914 10.3402 68.72H23.3402C25.1175 68.6087 26.889 69.0151 28.4402 69.89C29.5272 70.5794 30.3186 71.6489 30.6602 72.89H39.4002C41.3992 71.4406 43.6035 70.298 45.9402 69.5C48.3673 68.7595 50.9262 68.5548 53.4402 68.9L56.4402 65.34L56.5602 65.22C57.385 64.4266 58.3175 63.7533 59.3302 63.22C60.3988 62.6613 61.5301 62.2316 62.7002 61.94C64.5795 61.4708 66.5138 61.2589 68.4502 61.31C70.5128 61.3484 72.5637 61.6304 74.5602 62.15C78.0502 63.06 81.0702 65.15 84.0002 67.23C84.7002 67.72 85.4002 68.23 86.1502 68.71L90.4102 71.55V71.65ZM28.1102 74.75C28.0693 74.6206 28.049 74.4856 28.0502 74.35V74.24C28.0088 73.8558 27.8846 73.4852 27.686 73.1537C27.4875 72.8222 27.2194 72.5377 26.9002 72.32C25.8041 71.7526 24.57 71.5065 23.3402 71.61H10.4102C9.87603 71.5779 9.34102 71.6564 8.83859 71.8405C8.33616 72.0246 7.87712 72.3104 7.49017 72.68C6.88017 73.41 6.66017 74.68 6.96017 76.68V76.81L9.06017 102.88C9.35017 105.58 9.93017 107.31 10.7502 108.26C11.0698 108.62 11.4833 108.883 11.9443 109.021C12.4053 109.159 12.8956 109.165 13.3602 109.04C13.4432 109.03 13.5271 109.03 13.6102 109.04H24.0002C24.5597 109.094 25.1241 109.013 25.646 108.805C26.1679 108.596 26.6323 108.265 27.0002 107.84L27.0502 107.78C27.8183 106.507 28.194 105.035 28.1302 103.55V74.69L28.1102 74.75ZM30.9402 103.28H36.1402C36.4006 103.28 36.6559 103.352 36.8781 103.488C37.1004 103.624 37.281 103.818 37.4002 104.05L43.7802 115.18C44.5061 116.647 45.4501 117.996 46.5802 119.18C47.7481 120.175 49.2468 120.696 50.7802 120.64C51.4996 120.67 52.2169 120.54 52.8802 120.26C53.305 120.08 53.7076 119.852 54.0802 119.58L49.9302 111.8C49.7538 111.47 49.7158 111.083 49.8246 110.725C49.9334 110.367 50.18 110.066 50.5102 109.89C50.8404 109.714 51.2271 109.676 51.5853 109.784C51.9435 109.893 52.2438 110.14 52.4202 110.47L56.9402 118.93C58.226 119.752 59.7731 120.062 61.2763 119.799C62.7795 119.536 64.1296 118.719 65.0602 117.51L58.5502 107.2C58.3486 106.884 58.2807 106.502 58.3613 106.136C58.4419 105.77 58.6646 105.452 58.9802 105.25C59.2958 105.048 59.6785 104.98 60.0442 105.061C60.4099 105.142 60.7286 105.364 60.9302 105.68L67.7902 116.5C68.8773 116.985 70.0958 117.091 71.2502 116.8C72.4678 116.411 73.559 115.703 74.4102 114.75L68.1902 103C68.0854 102.835 68.016 102.65 67.9861 102.456C67.9562 102.263 67.9666 102.066 68.0166 101.877C68.0665 101.688 68.155 101.511 68.2765 101.358C68.398 101.204 68.5498 101.078 68.7225 100.986C68.8952 100.894 69.0849 100.839 69.2799 100.824C69.4749 100.809 69.6709 100.834 69.8557 100.898C70.0404 100.963 70.2099 101.064 70.3535 101.197C70.4971 101.33 70.6117 101.491 70.6902 101.67L77.1302 113.78C77.9585 114.248 78.9244 114.41 79.8602 114.24C80.6803 114.105 81.4518 113.76 82.1002 113.24C82.7194 112.767 83.1826 112.119 83.4302 111.38C83.709 110.47 83.634 109.487 83.2202 108.63C83.1307 108.426 83.093 108.202 83.1102 107.98C82.9132 107.894 82.7381 107.765 82.5979 107.602C82.4577 107.44 82.3559 107.247 82.3002 107.04L68.1802 81.58C66.6102 78.95 65.1802 78.89 63.8302 79.7C62.7543 80.419 61.7497 81.2394 60.8302 82.15C60.2102 82.71 59.5902 83.28 59.0702 83.7L56.5702 85.77C54.9784 87.0634 53.0413 87.8598 51.0002 88.06C49.8032 88.1658 48.5977 88.0053 47.4702 87.59C46.3583 87.1904 45.374 86.4997 44.6202 85.59C43.7658 84.5132 43.26 83.2016 43.1702 81.83C43.1504 81.6245 43.177 81.4172 43.2479 81.2234C43.3189 81.0296 43.4324 80.8541 43.5802 80.71L51.2102 71.63C49.7165 71.6 48.2277 71.8093 46.8002 72.25C44.6288 73.004 42.5827 74.0793 40.7302 75.44C40.4788 75.6359 40.1688 75.7415 39.8502 75.74H30.9402V103.25V103.28ZM101.73 96.91C102.21 96.9119 102.679 97.0561 103.077 97.3243C103.476 97.5926 103.786 97.9728 103.968 98.417C104.15 98.8611 104.197 99.3494 104.102 99.8201C104.007 100.291 103.775 100.723 103.435 101.062C103.095 101.401 102.662 101.631 102.191 101.724C101.719 101.817 101.231 101.768 100.788 101.584C100.345 101.4 99.9656 101.088 99.699 100.689C99.4324 100.29 99.2902 99.8201 99.2902 99.34C99.2902 99.02 99.3533 98.7032 99.4761 98.4077C99.5988 98.1123 99.7787 97.8439 100.005 97.6182C100.232 97.3924 100.501 97.2136 100.797 97.0921C101.093 96.9705 101.41 96.9087 101.73 96.91Z" fill="#00F6FF"/>
</g>
<defs>
<filter id="filter0_d_3474_7" x="0" y="0.5" width="120.56" height="130.88" filterUnits="userSpaceOnUse" color-interpolation-filters="sRGB">
<feFlood flood-opacity="0" result="BackgroundImageFix"/>
<feColorMatrix in="SourceAlpha" type="matrix" values="0 0 0 0 0 0 0 0 0 0 0 0 0 0 0 0 0 0 127 0" result="hardAlpha"/>
<feOffset dy="4"/>
<feGaussianBlur stdDeviation="2"/>
<feComposite in2="hardAlpha" operator="out"/>
<feColorMatrix type="matrix" values="0 0 0 0 0 0 0 0 0 0 0 0 0 0 0 0 0 0 0.25 0"/>
<feBlend mode="normal" in2="BackgroundImageFix" result="effect1_dropShadow_3474_7"/>
<feBlend mode="normal" in="SourceGraphic" in2="effect1_dropShadow_3474_7" result="shape"/>
</filter>
<clipPath id="clip0_3474_7">
<rect width="112.56" height="122.88" fill="white" transform="translate(4 0.5)"/>
</clipPath>
</defs>
</svg>
